<svg width="29" height="29" viewBox="0 0 29 29" fill="none" xmlns="http://www.w3.org/2000/svg">
<path d="M24.4334 14.7545H14.6553V4.84252C14.6553 4.72056 14.5568 4.62078 14.4365 4.62078H13.7256C12.2908 4.61929 10.8699 4.90501 9.54429 5.46152C8.21871 6.01804 7.01457 6.8344 6.00098 7.86378C5.00302 8.87226 4.20806 10.0678 3.66035 11.384C3.0916 12.7505 2.80176 14.2001 2.80176 15.6969C2.80176 17.1936 3.0916 18.6405 3.66035 20.007C4.20996 21.3236 4.99746 22.5099 6.00098 23.5272C7.00449 24.5444 8.17207 25.3427 9.47363 25.8999C10.8193 26.4786 12.2665 26.7756 13.7283 26.773C15.1631 26.7745 16.584 26.4887 17.9096 25.9322C19.2352 25.3757 20.4393 24.5593 21.4529 23.53C22.4564 22.5127 23.2439 21.3292 23.7936 20.0098C24.3645 18.6457 24.6574 17.1787 24.6549 15.6969V14.9762C24.6522 14.8542 24.5537 14.7545 24.4334 14.7545ZM26.8369 13.2161L26.7658 12.4345C26.5334 9.88442 25.4178 7.4785 23.6186 5.66298C21.821 3.84236 19.4523 2.71581 16.9221 2.47818L16.1482 2.40612C16.0197 2.39503 15.9104 2.49481 15.9104 2.62509V13.2605C15.9104 13.3824 16.0088 13.4822 16.1291 13.4822L26.6182 13.4545C26.7467 13.4517 26.8479 13.3436 26.8369 13.2161Z" fill="#9D90FA"/>
</svg>
